<svg width="480" height="480" xmlns="http://www.w3.org/2000/svg" xmlns:xlink="http://www.w3.org/1999/xlink" overflow="hidden">
	<g>
		<rect x="0" y="0" width="151" height="151" fill="#5F4936"/>
		<path d="M75.4891 45.8125C59.1022 45.8125 45.818 59.0967 45.818 75.4836 45.818 91.8705 59.1022 105.155 75.4891 105.155 91.8759 105.155 105.16 91.8705 105.16 75.4836 105.16 75.4826 105.16 75.4815 105.16 75.4805 105.166 59.1009 91.892 45.8181 75.5125 45.8125 75.5047 45.8125 75.4969 45.8125 75.4891 45.8125ZM90.0352 78.125 78.1305 78.125 78.1305 90.0266 72.8477 90.0266 72.8477 78.1219 60.943 78.1219 60.943 72.8391 72.8477 72.8391 72.8477 60.9344 78.1305 60.9344 78.1305 72.8391 90.0352 72.8391Z" fill="#D9D9D9"/>
	</g>
</svg>