<svg xmlns="http://www.w3.org/2000/svg" fill="none" viewBox="0 0 32 32" height="32" width="32">
<path fill="currentColor" d="m25.633333333333333 29.066533333333332 -4.133333333333333 -4.133333333333333 -2.9333333333333336 2.9333333333333336 -1.4333333333333331 -1.4333333333333331c-0.37779999999999997 -0.37779999999999997 -0.5666666666666667 -0.8444666666666666 -0.5666666666666667 -1.4 0 -0.5555333333333333 0.18886666666666665 -1.0222 0.5666666666666667 -1.4l6.633333333333333 -6.633333333333333c0.37779999999999997 -0.37779999999999997 0.8444666666666666 -0.5666666666666667 1.4 -0.5666666666666667 0.5555333333333333 0 1.0222 0.18886666666666665 1.4 0.5666666666666667l1.4333333333333331 1.4333333333333331 -2.9333333333333336 2.9333333333333336 4.1 4.133333333333333c0.19999999999999998 0.19999999999999998 0.3 0.43333333333333335 0.3 0.7s-0.09999999999999999 0.5 -0.3 0.7l-2.1333333333333333 2.1666666666666665c-0.19999999999999998 0.19999999999999998 -0.43333333333333335 0.3 -0.7 0.3s-0.5 -0.09999999999999999 -0.7 -0.3Zm3.6999999999999997 -21.2 -15.099999999999998 15.099999999999998 0.6333333333333333 0.6666666666666666c0.37779999999999997 0.37779999999999997 0.5666666666666667 0.8444666666666666 0.5666666666666667 1.4 0 0.5555333333333333 -0.18886666666666665 1.0222 -0.5666666666666667 1.4l-1.4333333333333331 1.4333333333333331 -2.9333333333333336 -2.9333333333333336 -4.133333333333333 4.133333333333333c-0.19999999999999998 0.19999999999999998 -0.43333333333333335 0.3 -0.7 0.3s-0.5 -0.09999999999999999 -0.7 -0.3l-2.1666666666666665 -2.1666666666666665c-0.19999999999999998 -0.19999999999999998 -0.3 -0.43333333333333335 -0.3 -0.7s0.09999999999999999 -0.5 0.3 -0.7l4.133333333333333 -4.133333333333333 -2.9333333333333336 -2.9333333333333336 1.4333333333333331 -1.4333333333333331c0.37778 -0.37779999999999997 0.8444466666666666 -0.5666666666666667 1.4 -0.5666666666666667 0.5555333333333333 0 1.0222 0.18886666666666665 1.4 0.5666666666666667l0.6666666666666666 0.6333333333333333L24 2.5332h5.333333333333333v5.333333333333333Zm-20.066666666666666 6.6 -6.6 -6.6v-5.333333333333333h5.333333333333333l6.6 6.6 -1.4 1.4 -6.033333333333333 -6H4.666666666666666v2.5l6 6.033333333333333 -1.4 1.4Zm3.5 7.066666666666666L27.333333333333332 7.033199999999999v-2.5h-2.5l-14.566666666666666 14.5 2.5 2.5Z" stroke-width="0.6667">
</path>
</svg>
