<svg xmlns="http://www.w3.org/2000/svg" viewBox="0 0 32 32" height="32" width="32">
	<path d="M22.85927142857143 3.259692857142857c0 -2.262978571428571 -2.449735714285714 -3.6773357142857144 -4.409528571428571 -2.5458499999999997 -0.909542857142857 0.5251285714285714 -1.4698499999999999 1.4956 -1.4698499999999999 2.5458499999999997 0 2.2629714285714284 2.4497428571428568 3.6773285714285713 4.409535714285714 2.545842857142857 0.909542857142857 -0.5251285714285714 1.469842857142857 -1.4956 1.469842857142857 -2.545842857142857ZM10.959657142857143 11.068235714285713c0.6063142857142857 -0.6063071428571428 1.4331 -0.9492714285714285 2.2966357142857143 -0.9492714285714285 0.11635714285714285 0 0.23272142857142858 0.006121428571428571 0.34296428571428567 0.01837142857142857l-1.9108 5.738521428571428c-0.5695642857142857 1.7148142857142856 0.10411428571428571 3.6011214285714286 1.6413285714285712 4.5626428571428574l5.279185714285714 3.3010214285714286 -1.5555857142857141 5.438428571428571c-0.3000928571428571 1.0411428571428571 0.30622142857142853 2.1251499999999997 1.3473642857142856 2.425242857142857s2.1251499999999997 -0.3062142857142857 2.425242857142857 -1.3473571428571427l1.7576857142857143 -6.1488499999999995c0.36133571428571426 -1.2616142857142858 -0.1592285714285714 -2.608971428571428 -1.267742857142857 -3.301028571428571l-3.478628571428571 -2.174142857142857 1.8924214285714285 -5.046464285714285 0.3123428571428571 0.753292857142857c0.9186571428571428 2.1925214285714283 3.0560571428571426 3.619492857142857 5.4323 3.619492857142857h1.304485714285714c1.0840142857142856 0 1.9597928571428571 -0.8757785714285713 1.9597928571428571 -1.9597928571428571s-0.8757785714285713 -1.9597928571428571 -1.9597928571428571 -1.9597928571428571h-1.304485714285714c-0.7900428571428572 0 -1.506585714285714 -0.4777 -1.8066857142857142 -1.2065l-0.3858285714285714 -0.91865c-0.8941571428571429 -2.14965 -2.700842857142857 -3.7909714285714284 -4.930107142857143 -4.4769l-2.982557142857143 -0.9186571428571428c-0.6798071428571428 -0.20822857142857143 -1.3902285714285714 -0.3184642857142857 -2.1067785714285714 -0.3184642857142857 -1.8985499999999997 0 -3.7236071428571424 0.753292857142857 -5.0648357142857146 2.10065l-1.42085 1.4147285714285713c-0.76555 0.7655428571428571 -0.76555 2.008785714285714 0 2.7743285714285713s2.008785714285714 0.76555 2.7743285714285713 0l1.4147285714285713 -1.4147214285714285Zm-2.1129 10.809485714285714H5.2211428571428575c-1.0840142857142856 0 -1.9597928571428571 0.8757785714285713 -1.9597928571428571 1.9597928571428571s0.8757785714285713 1.9597928571428571 1.9597928571428571 1.9597928571428571h4.262542857142857c1.1636285714285715 0 2.2170214285714285 -0.6859285714285713 2.6885928571428575 -1.745442857142857l0.7043 -1.586207142857143 -0.5818142857142857 -0.3674571428571428c-1.0717571428571429 -0.6675571428571428 -1.8679285714285714 -1.6413285714285712 -2.3211285714285714 -2.749835714285714l-1.1268785714285714 2.5293571428571426Z"/>
</svg>
