<svg xmlns="http://www.w3.org/2000/svg" fill="none" viewBox="0 0 32 32" height="32" width="32">
<path id="Union" fill="currentColor" fill-rule="evenodd" d="M3.663405714285714 2.9993142857142856c-0.14349714285714285 0.1300342857142857 -0.2679542857142857 0.3504457142857143 -0.2970285714285714 0.6224 -0.6757257142857143 6.323931428571428 -0.6821942857142856 9.812662857142858 -0.00015999999999999999 16.133257142857143 0.005805714285714286 0.05378285714285714 0.008548571428571428 0.10783999999999999 0.008228571428571427 0.16191999999999998 -0.0016914285714285714 0.2783771428571428 0.2695542857142857 0.5829028571428572 0.5456914285714286 0.6134628571428572l0.034879999999999994 0.004297142857142857c2.5451200000000003 0.3452571428571428 4.981142857142857 1.1664228571428572 7.189302857142857 2.4011199999999997 0.6886628571428571 0.38491428571428565 0.9347885714285714 1.2553142857142856 0.54976 1.944 -0.3850057142857143 0.6886857142857142 -1.255405714285714 0.9346285714285714 -1.9440457142857144 0.5497142857142857 -1.893782857142857 -1.058742857142857 -3.9823542857142855 -1.7636571428571426 -6.164548571428571 -2.061714285714286C1.8951885714285714 23.170057142857143 0.5553005714285714 21.687817142857142 0.5180937142857143 19.991999999999997 -0.1786278857142857 13.508571428571429 -0.16915931428571426 9.818377142857143 0.5254194285714285 3.318148571428571 0.7182811428571428 1.5132594285714283 2.268594285714286 -0.27847542857142854 4.4737599999999995 0.033866971428571424l0.0336 0.005166171428571428C8.540548571428571 0.7085279999999999 12.26790857142857 2.5713371428571428 15.217028571428571 5.3700342857142855 18.16624 2.570994285714286 21.893851428571427 0.7079428571428571 25.92731428571428 0.038396571428571426l0.0336 -0.005166171428571428c1.2422857142857142 -0.17596068571428572 2.226742857142857 0.4813273142857143 2.8052571428571427 1.0774873142857142 0.5689142857142857 0.5863428571428572 1.0377142857142856 1.404048 1.1389714285714285 2.1718879999999996 0.8633142857142856 6.55056 0.8162285714285713 10.273165714285714 0.0011428571428571427 16.801965714285714 -0.09782857142857142 0.7829028571428571 -0.8116571428571429 1.3383314285714285 -1.5945142857142856 1.2405942857142858 -0.7828571428571429 -0.09776 -1.3382857142857143 -0.8116571428571429 -1.2406857142857142 -1.59456 0.7876571428571428 -6.307588571428571 0.8301714285714286 -9.784617142857144 0.0020571428571428568 -16.069599999999998l-0.0013714285714285712 -0.0022857142857142855c-0.005257142857142857 -0.016594285714285714 -0.024228571428571426 -0.07842285714285714 -0.07771428571428572 -0.17812571428571428 -0.06879999999999999 -0.12790857142857143 -0.1657142857142857 -0.26420571428571427 -0.2784 -0.38018285714285716 -0.11405714285714286 -0.1175542857142857 -0.21554285714285712 -0.1850742857142857 -0.2852571428571428 -0.21686857142857144 -0.03268571428571428 -0.014765714285714285 -0.05279999999999999 -0.01933714285714286 -0.06102857142857143 -0.02073142857142857l-0.005485714285714285 -0.0006171428571428571c-3.7065371428571425 0.6221485714285714 -7.111199999999999 2.4165485714285713 -9.71744 5.112754285714285v3.165005714285714c0 0.7889828571428571 -0.6395885714285714 1.4285714285714284 -1.4285714285714284 1.4285714285714284s-1.4285714285714284 -0.6395885714285714 -1.4285714285714284 -1.4285714285714284V7.97664c-2.60864 -2.6991314285714285 -6.017371428571428 -4.4946971428571425 -9.728228571428572 -5.115428571428571 -0.1412342857142857 -0.01689142857142857 -0.2707657142857143 0.02313142857142857 -0.39766857142857137 0.13810285714285714Zm16.503382857142856 12.11024c-1.807497142857143 0 -3.2727542857142855 1.4655085714285712 -3.2727542857142855 3.27328v8.345851428571429l-0.7018742857142857 0.30079999999999996c-1.8741714285714284 0.8034285714285714 -2.90176 2.560457142857143 -2.952662857142857 4.3506285714285715 -0.00464 0.1632 0.05696 0.3213714285714286 0.17076571428571427 0.43862857142857137 0.11382857142857142 0.11702857142857143 0.27017142857142856 0.1830857142857143 0.43346285714285715 0.1830857142857143h17.52976c0.3145142857142857 0 0.5764571428571428 -0.24114285714285713 0.6022857142857143 -0.5547428571428571 0.20274285714285714 -2.450285714285714 -0.8276571428571428 -4.490285714285714 -2.544228571428571 -5.898514285714286 -1.5670857142857142 -1.2857142857142856 -3.696685714285714 -2.0418285714285713 -5.992 -2.154742857142857V18.382834285714285c0 -1.8077714285714286 -1.46528 -3.27328 -3.2727542857142855 -3.27328Z" clip-rule="evenodd" stroke-width="2.2857">
</path>
</svg>
