<svg xmlns="http://www.w3.org/2000/svg" viewBox="0 0 32 32" height="32" width="32">
	<path d="M15.8083 3.26c0 -2.2632166666666667 2.4499999999999997 -3.6777249999999997 4.41 -2.5461166666666664 0.9096333333333333 0.5251833333333333 1.47 1.4957583333333333 1.47 2.5461166666666664 0 2.2632166666666667 -2.4499999999999997 3.6777249999999997 -4.41 2.5461166666666664 -0.9096416666666666 -0.5251833333333333 -1.47 -1.4957583333333333 -1.47 -2.5461166666666664Zm3.142125 11.190375 -1.169875 4.673375 3.0441249999999997 3.0441249999999997c0.55125 0.55125 0.863625 1.2985 0.863625 2.0763749999999996v5.47575c0 1.0841249999999998 -0.875875 1.96 -1.96 1.96s-1.96 -0.875875 -1.96 -1.96v-5.0653749999999995l-4.526375 -4.526375c-0.9677499999999999 -0.9677499999999999 -1.35975 -2.3642499999999997 -1.0351249999999999 -3.693375l1.2494999999999998 -5.145c0.508375 -2.088625 2.615375 -3.362625 4.697875 -2.8419999999999996 1.1637499999999998 0.294 2.1805 1.0045 2.8419999999999996 2.002875l1.7394999999999998 2.60925h1.892625v-1.47c0 -0.8146249999999999 0.6553749999999999 -1.47 1.47 -1.47s1.47 0.6553749999999999 1.47 1.47v18.619999999999997c0 0.8146249999999999 -0.6553749999999999 1.47 -1.47 1.47s-1.47 -0.6553749999999999 -1.47 -1.47V16.979999999999997h-2.4132499999999997c-0.98 0 -1.89875 -0.49 -2.443875 -1.3107499999999999l-0.8146249999999999 -1.2249999999999999Zm-9.93475 14.7735 2.21725 -8.446375c0.18375 0.25725 0.39199999999999996 0.50225 0.618625 0.7288749999999999l2.566375 2.566375 -1.617 6.143375c-0.275625 1.047375 -1.3475000000000001 1.6721249999999999 -2.394875 1.3964999999999999s-1.6721249999999999 -1.3475000000000001 -1.3964999999999999 -2.394875Zm3.3993749999999996 -21.1925 -2.1559999999999997 8.611749999999999c-0.18375 0.7411249999999999 -0.9126249999999999 1.218875 -1.666 1.0963749999999999l-2.9338749999999996 -0.49c-0.8574999999999999 -0.14087499999999997 -1.4026249999999998 -0.9983749999999999 -1.176 -1.8375l1.5190000000000001 -5.59825c0.5818749999999999 -2.1315 2.517375 -3.61375 4.7284999999999995 -3.61375h0.25725c0.9554999999999999 0 1.659875 0.900375 1.4271249999999998 1.8252499999999998Z"/>
</svg>
