<svg xmlns="http://www.w3.org/2000/svg" fill="none" viewBox="0 0 32 32" height="32" width="32">
<path fill="currentColor" fill-rule="evenodd" d="m0 2 2 -2 5.75964 5.75964C9.9945 4.147 12.73254 2.99996 16 2.99996c11 0 16 13 16 13s-1.7936 4.66344 -5.5958 8.40424L32 30l-2 2L0 2Zm14.3535 10.3535 5.293 5.293C19.87358 17.14436 20 16.58694 20 16c0 -2.20914 -1.79086 -4 -4 -4 -0.58694 0 -1.14436 0.12642 -1.6465 0.3535Z" clip-rule="evenodd" stroke-width="2">
</path>
<path fill="currentColor" d="M3.70846 9.70846C1.197104 12.8875 0 15.99996 0 15.99996S5 29 16 29c2.13118 0 4.0372 -0.488 5.7252 -1.2748L3.70846 9.70846Z" stroke-width="2">
</path>
</svg>
