<svg xmlns="http://www.w3.org/2000/svg" version="1.1" width="48px" height="48px">
	<path d="M 19.5,-0.5 C 22.5,-0.5 25.5,-0.5 28.5,-0.5C 30.0423,0.140772 31.3757,1.14077 32.5,2.5C 31.6667,4.16667 30.8333,5.83333 30,7.5C 26.9049,8.39487 23.7383,8.39487 20.5,7.5C 20.5987,4.76275 20.2653,2.09609 19.5,-0.5 Z"/>
	<path d="M 14.5,0.5 C 17.7343,0.236557 19.0676,1.73656 18.5,5C 17.5862,8.4939 15.2529,10.6606 11.5,11.5C 9.30779,10.1413 7.64113,8.30794 6.5,6C 9.09139,3.88324 11.7581,2.04991 14.5,0.5 Z"/>
	<path d="M 34.5,2.5 C 41.8882,4.96841 43.0549,8.96841 38,14.5C 35.5227,13.0146 33.356,11.1812 31.5,9C 32.3773,6.74726 33.3773,4.58059 34.5,2.5 Z"/>
	<path d="M -0.5,30.5 C -0.5,25.8333 -0.5,21.1667 -0.5,16.5C 0.792465,13.2632 2.6258,10.2632 5,7.5C 6.68511,9.01748 8.18511,10.6841 9.5,12.5C 3.93785,18.3497 1.43785,25.3497 2,33.5C 1.14825,32.4293 0.314913,31.4293 -0.5,30.5 Z"/>
	<path d="M 26.5,47.5 C 17.8333,47.5 9.16667,47.5 0.5,47.5C 0.5,46.8333 0.166667,46.5 -0.5,46.5C -0.5,45.5 -0.5,44.5 -0.5,43.5C 3.84579,37.6955 5.67912,31.0289 5,23.5C 9.48403,12.3405 17.6507,8.17383 29.5,11C 32.3616,11.9305 34.695,13.5971 36.5,16C 28.7742,17.8479 21.1075,19.8479 13.5,22C 12.9075,25.6268 11.5742,28.9601 9.5,32C 10.6191,36.7338 13.6191,39.4005 18.5,40C 21.0625,42.733 23.7291,45.233 26.5,47.5 Z"/>
	<path d="M 47.5,21.5 C 47.5,22.8333 47.5,24.1667 47.5,25.5C 38.9438,27.6501 30.2771,29.4835 21.5,31C 30.2443,31.1954 38.911,31.6954 47.5,32.5C 47.5,33.8333 47.5,35.1667 47.5,36.5C 44.1518,39.8514 41.1518,43.5181 38.5,47.5C 36.8333,47.5 35.1667,47.5 33.5,47.5C 27.4799,45.8333 22.4799,42.4999 18.5,37.5C 16.6587,36.7696 14.8254,36.1029 13,35.5C 12.5351,31.304 13.2018,27.304 15,23.5C 23.2248,21.1941 31.5581,19.1941 40,17.5C 43.0234,17.9274 45.5234,19.2607 47.5,21.5 Z M 30.5,35.5 C 31.522,36.8917 31.1887,38.225 29.5,39.5C 29.1667,39.1667 28.8333,38.8333 28.5,38.5C 29.1925,37.4822 29.8592,36.4822 30.5,35.5 Z M 36.5,36.5 C 37.3764,36.3691 38.0431,36.7025 38.5,37.5C 34.3912,44.1757 33.7245,43.8424 36.5,36.5 Z"/>
</svg>
