<svg role="img" viewBox="0 0 32 32" xmlns="http://www.w3.org/2000/svg" height="32" width="32">
<path d="m29.77333333333333 10.468 -0.9546666666666666 -0.5306666666666666c1.468 -2.0919999999999996 2.344 -5.236 1.2453333333333334 -9.937333333333333 0 0 -2.476 6.705333333333333 -7.453333333333333 6.484l-5.826666666666666 -3.2413333333333334a1.5613333333333332 1.5613333333333332 0 0 0 -0.7146666666666667 -0.19999999999999998h-0.13466666666666666a1.5773333333333333 1.5773333333333333 0 0 0 -0.7173333333333334 0.19999999999999998L9.389333333333333 6.484C4.412 6.706666666666667 1.936 0 1.936 0c-1.0999999999999999 4.7013333333333325 -0.22133333333333333 7.8453333333333335 1.2453333333333334 9.937333333333333l-0.9546666666666666 0.5306666666666666a1.5106666666666666 1.5106666666666666 0 0 0 -0.7853333333333332 1.3173333333333332l0.02933333333333333 19.454666666666665c0 0.27066666666666667 0.14533333333333331 0.5226666666666666 0.39199999999999996 0.6546666666666666a0.7733333333333332 0.7733333333333332 0 0 0 0.7786666666666666 0l7.72 -4.272c0.488 -0.2813333333333333 0.7853333333333332 -0.7759999999999999 0.7853333333333332 -1.3159999999999998v-9.089333333333332c0 -0.5413333333333333 0.29733333333333334 -1.044 0.7839999999999999 -1.3119999999999998l3.286666666666666 -1.8293333333333335a1.5866666666666664 1.5866666666666664 0 0 1 0.7866666666666666 -0.2053333333333333c0.26666666666666666 0 0.5426666666666666 0.06666666666666667 0.7799999999999999 0.2053333333333333l3.286666666666666 1.8293333333333335c0.48666666666666664 0.268 0.7839999999999999 0.7706666666666666 0.7839999999999999 1.3119999999999998v9.089333333333332c0 0.54 0.30133333333333334 1.0386666666666666 0.7866666666666666 1.3159999999999998l7.717333333333333 4.272a0.7866666666666666 0.7866666666666666 0 0 0 0.7853333333333332 0 0.7519999999999999 0.7519999999999999 0 0 0 0.3893333333333333 -0.6546666666666666l0.025333333333333333 -19.454666666666665a1.5053333333333332 1.5053333333333332 0 0 0 -0.7853333333333332 -1.3173333333333332z" fill="currentColor" stroke-width="1.3333">
</path>
</svg>
