<svg xmlns="http://www.w3.org/2000/svg" viewBox="0 0 32 32" height="32" width="32">
	<path d="M28.5439625 0.32H3.4560375c-1.385575 0 -2.5088 1.123225 -2.5088 2.5087875v8.7807875c0 8.2664625 4.001525 13.2762125 7.3586125 16.0233375 3.6157875 2.95725 7.212775 3.962325 7.369575 4.0031 0.2156 0.05865 0.4429625 0.05865 0.6585625 0 0.1568 -0.040775 3.749075 -1.04585 7.369575 -4.0031 3.347675 -2.747125 7.3492 -7.756875 7.3492 -16.0233375V2.8287875c0 -1.3855625 -1.123225 -2.5087875 -2.5088 -2.5087875ZM16 29.1115375c-2.2183875 -0.7746375 -4.28385 -1.9320875 -6.1026375 -3.4198 -3.6455875 -2.982325 -5.7561125 -6.8693875 -6.3002125 -11.573375H16V2.8287875h12.5439625v8.7807875c0.0004875 0.83825 -0.0466375 1.6758625 -0.1411125 2.5087875H16v14.993175Z" stroke-width="0.125"/>
</svg>
