<svg xmlns="http://www.w3.org/2000/svg" viewBox="0 0 32 32" height="32" width="32">
	<path d="m17.31693333333333 6.313106666666666 0.8937333333333333 -1.5481333333333334 -2.309333333333333 -1.3333333333333333 -0.8938666666666666 1.5481333333333334 -1.1538666666666666 -0.6662133333333333 -1.1547466666666666 -0.6666666666666666 -0.6666666666666666 1.1546933333333333 -3.8975599999999995 6.750773333333333 -0.6666666666666666 1.1547066666666665 1.1546933333333333 0.6666666666666666 1.1533733333333331 0.6658666666666666 -6.542386666666666 11.331733333333332 2.3094 1.3333333333333333 6.542386666666666 -11.331733333333332 1.35924 0.7847999999999999 1.2537333333333334 0.7238666666666667c1.7494666666666667 1.0099999999999998 2.7781333333333333 2.9218666666666664 2.6570666666666662 4.938266666666666l-0.05146666666666667 0.8584 -0.10093333333333333 1.6804 1.6589333333333331 -0.2866666666666666 -0.22706666666666667 -1.3138666666666667c0.22706666666666667 1.3138666666666667 0.22773333333333334 1.3137333333333332 0.2284 1.3135999999999999l0.0013333333333333333 -0.0002666666666666667 0.0031999999999999997 -0.0005333333333333334 0.007466666666666667 -0.0013333333333333333 0.0196 -0.0036c0.015066666666666666 -0.0027999999999999995 0.0344 -0.006666666666666666 0.0576 -0.011466666666666667 0.04653333333333333 -0.009466666666666667 0.10880000000000001 -0.0232 0.18546666666666667 -0.04173333333333333 0.15333333333333332 -0.037066666666666664 0.3646666666666667 -0.09399999999999999 0.6222666666666666 -0.17773333333333333 0.5145333333333333 -0.16733333333333333 1.2174666666666667 -0.4429333333333333 2.0124 -0.8842666666666666 1.594933333333333 -0.8853333333333333 3.5544 -2.4357333333333333 5.086133333333333 -5.0885333333333325 1.5316 -2.6529333333333334 1.8944 -5.125026666666667 1.8637333333333332 -6.949053333333333 -0.015333333333333332 -0.90896 -0.128 -1.6556533333333334 -0.24039999999999997 -2.1848799999999997 -0.056266666666666666 -0.2649066666666666 -0.11266666666666666 -0.4764 -0.1572 -0.6277333333333333 -0.022266666666666664 -0.07570666666666666 -0.0416 -0.13648 -0.05653333333333333 -0.18150666666666665 -0.007466666666666667 -0.02252 -0.013866666666666666 -0.041106666666666666 -0.018933333333333333 -0.05566666666666667l-0.006666666666666666 -0.018799999999999997 -0.002533333333333333 -0.00712 -0.0012 -0.0029733333333333335 -0.00039999999999999996 -0.00136c-0.0002666666666666667 -0.0006266666666666666 -0.0005333333333333334 -0.00124 -1.2518666666666665 0.4590266666666667l1.2513333333333332 -0.46026666666666666 -0.5810666666666666 -1.5799866666666667 -1.4049333333333334 0.9275733333333332 -0.7176 0.4738c-1.6857333333333333 1.1130533333333332 -3.8557333333333332 1.1781199999999998 -5.6052 0.16806666666666664l-1.2538666666666667 -0.7238533333333332 -1.3585333333333331 -0.7844266666666666Z" clip-rule="evenodd" stroke-width="1.3333"/>
</svg>
