<svg xmlns="http://www.w3.org/2000/svg" fill="none" viewBox="0 0 32 32" height="32" width="32">
<path fill="currentColor" d="M10.399999999999999 24c-1.1333333333333333 0 -2.216666666666667 -0.19999999999999998 -3.25 -0.6 -1.0333333333333332 -0.39999999999999997 -1.961113333333333 -0.9888666666666667 -2.783333333333333 -1.7666666666666666 -1.0666666666666667 -1 -1.8388866666666666 -2.183333333333333 -2.3166666666666664 -3.55C1.57222 16.716666666666665 1.3333333333333333 15.299999999999999 1.3333333333333333 13.833333333333332c0 -1.7333333333333334 0.42221999999999993 -3.138866666666667 1.2666666666666666 -4.216666666666667C3.4444466666666664 8.538866666666665 4.67778 8 6.299999999999999 8c0.3111133333333333 0 0.6055333333333333 0.0278 0.8833333333333333 0.08333333333333333 0.2778 0.05553333333333333 0.5611333333333333 0.13886666666666667 0.8499999999999999 0.25L16 11.299999999999999l7.966666666666666 -2.966666666666667c0.28886666666666666 -0.11113333333333332 0.5721999999999999 -0.19446666666666668 0.8499999999999999 -0.25 0.2778 -0.05553333333333333 0.5721999999999999 -0.08333333333333333 0.8833333333333333 -0.08333333333333333 1.6221999999999999 0 2.855533333333333 0.5388666666666666 3.6999999999999997 1.6166666666666665 0.8444666666666666 1.0777999999999999 1.2666666666666666 2.4833333333333334 1.2666666666666666 4.216666666666667 0 1.4666666666666668 -0.23886666666666667 2.8833333333333333 -0.7166666666666666 4.25 -0.4778 1.3666666666666665 -1.25 2.55 -2.3166666666666664 3.55 -0.8222 0.7778 -1.75 1.3666666666666665 -2.783333333333333 1.7666666666666666 -1.0333333333333332 0.39999999999999997 -2.1166666666666663 0.6 -3.25 0.6 -1.4666666666666668 0 -2.711133333333333 -0.3333333333333333 -3.733333333333333 -1L16.333333333333332 22h-0.6666666666666666l-1.5333333333333332 1c-1.0222 0.6666666666666666 -2.2666666666666666 1 -3.733333333333333 1Zm1.2333333333333334 -5.333333333333333c0.6444666666666666 0 1.1555333333333333 -0.15 1.5333333333333332 -0.45 0.37779999999999997 -0.3 0.5666666666666667 -0.7055333333333333 0.5666666666666667 -1.2166666666666666 0 -0.8666666666666667 -0.5778 -1.6944666666666666 -1.7333333333333334 -2.4833333333333334S9.633333333333333 13.333333333333332 8.366666666666667 13.333333333333332c-0.6444666666666666 0 -1.1555333333333333 0.15 -1.5333333333333332 0.45 -0.37778 0.3 -0.5666666666666667 0.7055333333333333 -0.5666666666666667 1.2166666666666666 0 0.8666666666666667 0.5778 1.6944666666666666 1.7333333333333334 2.4833333333333334S10.366666666666667 18.666666666666664 11.633333333333333 18.666666666666664Zm8.733333333333333 0c1.2666666666666666 0 2.4778 -0.39446666666666663 3.6333333333333333 -1.1833333333333331 1.1555333333333333 -0.7888666666666666 1.7333333333333334 -1.6166666666666665 1.7333333333333334 -2.4833333333333334 0 -0.5333333333333333 -0.18333333333333335 -0.9444666666666667 -0.5499999999999999 -1.2333333333333334 -0.3666666666666667 -0.28886666666666666 -0.8833333333333333 -0.43333333333333335 -1.55 -0.43333333333333335 -1.2666666666666666 0 -2.4778 0.39446666666666663 -3.6333333333333333 1.1833333333333331 -1.1555333333333333 0.7888666666666666 -1.7333333333333334 1.6166666666666665 -1.7333333333333334 2.4833333333333334 0 0.5111333333333333 0.18333333333333335 0.9166666666666666 0.5499999999999999 1.2166666666666666 0.3666666666666667 0.3 0.8833333333333333 0.45 1.55 0.45Z" stroke-width="0.6667">
</path>
</svg>
