<svg xmlns="http://www.w3.org/2000/svg" viewBox="0 0 32 32" fill="currentColor" height="32" width="32">
<path d="M31.3776625 5.762225 26.236775 0.6213375c-0.559975 -0.559975 -1.5161625 -0.303775 -1.721125 0.461175 -0.095125 0.3550125 0.006375 0.7338125 0.2662625 0.9937l0.302025 0.3007375 -7.733175 7.7318875c-2.929025 -1.5242625 -6.2089125 -1.3970375 -8.1958625 0.5886375 -0.52435 0.5266 -0.9351 1.155175 -1.206825 1.8468625 -0.1704875 0.3831375 -0.5509875 0.629575 -0.9703375 0.628475 -1.8751375 0.062975 -3.5035125 0.73515 -4.7103375 1.9419625C0.71485 16.6711875 0.0619625 18.9049 0.4141125 21.407225c0.3418625 2.3943625 1.584675 4.7656 3.5035125 6.67415s4.284925 3.1565125 6.68315 3.498375c0.4297625 0.064225 0.86355 0.097725 1.298075 0.10025 1.9689625 0 3.7052875 -0.672175 4.9815125 -1.9484 1.206825 -1.2068125 1.879 -2.8352 1.941975 -4.7103375 -0.000425 -0.4202625 0.2476875 -0.8010125 0.632325 -0.9703375 0.691775 -0.2715625 1.3203875 -0.682325 1.8468625 -1.206825 1.985675 -1.98695 2.1129125 -5.2694 0.5886375 -8.19585l7.7318875 -7.7331875 0.30075 0.3020375c0.559975 0.559975 1.5161625 0.3037625 1.721125 -0.4611875 0.095125 -0.3550125 -0.006375 -0.7338 -0.2662625 -0.9936875ZM11.3282125 26.2370875c-0.401475 0.4012125 -1.0521125 0.4012125 -1.4535875 0L5.7619125 22.124375c-0.559475 -0.559975 -0.3029625 -1.515625 0.4617375 -1.7201625 0.3549 -0.094925 0.7334875 0.0066875 0.9931375 0.266575L11.3295 24.7835c0.40085 0.401825 0.400275 1.0524625 -0.0012875 1.4535875Zm5.415925 -5.894025c-1.95845 1.9592375 -5.3034125 1.063675 -6.0209375 -1.6120125 -0.717525 -2.675675 1.7305375 -5.124725 4.4065125 -4.408275 0.6106625 0.1635 1.1675 0.4849875 1.614425 0.9320875 1.4046625 1.4052375 1.4046625 3.6829625 0 5.0882Zm3.9919 -7.4542875c-0.2420875 -0.2992625 -0.499475 -0.585825 -0.7711375 -0.858525 -0.2728375 -0.2719875 -0.55985 -0.5293875 -0.8598125 -0.7711375l2.8056375 -2.801775 1.63095 1.6309375Zm4.259225 -4.2553625L23.3656 7.00375l3.171925 -3.1732125 1.63095 1.63095Z" stroke-width="0.125">
</path>
</svg>
