<svg role="img" viewBox="0 0 32 32" xmlns="http://www.w3.org/2000/svg" height="32" width="32">
<path d="m27.77333333333333 3.970666666666667 -0.11466666666666665 0.12666666666666665a21.66 21.66 0 0 0 -1.5866666666666664 1.9826666666666668 7.697333333333333 7.697333333333333 0 0 0 -0.5946666666666667 0.9586666666666666 3.84 3.84 0 0 0 -0.33199999999999996 0.7946666666666666 0.6626666666666666 0.6626666666666666 0 0 0 -0.044 0.236v0.005333333333333333a0.39599999999999996 0.39599999999999996 0 0 0 -0.27999999999999997 0.3866666666666666 0.39999999999999997 0.39999999999999997 0 0 0 0.24933333333333332 0.3786666666666666c0.050666666666666665 0.49466666666666664 0.10666666666666666 1.5226666666666664 0.09333333333333334 2.9333333333333336l-0.005333333333333333 0.1893333333333333a10.668 10.668 0 0 1 -0.5786666666666667 3.1026666666666665c-0.021333333333333333 -0.013333333333333332 -0.039999999999999994 -0.018666666666666665 -0.05333333333333333 -0.017333333333333333 -0.039999999999999994 0.004 -0.14666666666666667 0.15999999999999998 -0.2533333333333333 0.33466666666666667 -0.07733333333333334 0.12 -0.15866666666666665 0.26 -0.2053333333333333 0.38799999999999996a0.4933333333333333 0.4933333333333333 0 0 0 -0.039999999999999994 0.18666666666666668 0.33199999999999996 0.33199999999999996 0 0 0 0.013333333333333332 0.11733333333333332c0.013333333333333332 0.049333333333333326 0.02933333333333333 0.07733333333333334 0.02933333333333333 0.07733333333333334a9.114666666666666 9.114666666666666 0 0 1 -0.004 0.009333333333333332 0.19199999999999998 0.19199999999999998 0 0 0 -0.03733333333333333 0.08933333333333333l-0.016 0.03866666666666667a9.114666666666666 9.114666666666666 0 0 1 -0.3426666666666667 0.7026666666666667l-0.10266666666666666 0.1893333333333333a9.114666666666666 9.114666666666666 0 0 1 -0.09333333333333334 0.15333333333333332 0.20933333333333332 0.20933333333333332 0 0 0 -0.02933333333333333 -0.018666666666666665 0.21333333333333332 0.21333333333333332 0 0 0 -0.15066666666666667 0.032c-0.06266666666666666 0.04666666666666667 -0.2013333333333333 0.25866666666666666 -0.6639999999999999 0.49066666666666664a1.845333333333333 1.845333333333333 0 0 1 -0.42666666666666664 0.152 18.799999999999997 18.799999999999997 0 0 0 0.33066666666666666 -2.76 6.762666666666666 6.762666666666666 0 0 0 -0.08533333333333333 -1.409333333333333c0.004 -0.013333333333333332 0.004 -0.02266666666666667 0.004 -0.02266666666666667l-0.006666666666666666 0.013333333333333332a5.793333333333333 5.793333333333333 0 0 0 -0.13866666666666666 -0.6106666666666667 4.738666666666666 4.738666666666666 0 0 0 -0.9653333333333333 -1.8466666666666667c-0.8413333333333333 -1.0053333333333332 -1.9946666666666666 -1.5199999999999998 -3.0079999999999996 -1.5533333333333332l-0.16666666666666666 -0.0026666666666666666c0 -0.010666666666666666 0 -0.019999999999999997 0.0026666666666666666 -0.02933333333333333 0.026666666666666665 -0.13066666666666665 0.032 -0.16933333333333334 -0.11599999999999999 -0.042666666666666665a1.1626666666666665 1.1626666666666665 0 0 0 -0.076 0.072 3.9813333333333336 3.9813333333333336 0 0 0 -0.19466666666666665 0.009333333333333332 0.9546666666666666 0.9546666666666666 0 0 1 -0.004 -0.144c0.005333333333333333 -0.10133333333333333 0.032 -0.16933333333333334 -0.11599999999999999 -0.042666666666666665a0.7373333333333334 0.7373333333333334 0 0 0 -0.1893333333333333 0.22266666666666668c-0.06666666666666667 0.010666666666666666 -0.10666666666666666 0.019999999999999997 -0.10666666666666666 0.019999999999999997l0.06 -0.0026666666666666666 -0.06266666666666666 0.010666666666666666c-0.021333333333333333 -0.056 -0.07066666666666666 -0.13999999999999999 -0.064 -0.21333333333333332 0.013333333333333332 -0.15733333333333333 0.057333333333333326 -0.18666666666666668 -0.049333333333333326 -0.08666666666666667 -0.13066666666666665 0.12 -0.2693333333333333 0.30133333333333334 -0.29333333333333333 0.39999999999999997l-0.128 0.039999999999999994c-0.023999999999999997 -0.025333333333333333 -0.09866666666666665 -0.09333333333333334 -0.11466666666666665 -0.23866666666666664 -0.017333333333333333 -0.14666666666666667 -0.016 -0.22133333333333333 -0.10666666666666666 -0.06666666666666667a1.5199999999999998 1.5199999999999998 0 0 0 -0.17333333333333334 0.46399999999999997c-0.042666666666666665 0.019999999999999997 -0.08399999999999999 0.039999999999999994 -0.124 0.06133333333333333a0.36 0.36 0 0 1 -0.076 -0.23066666666666663c-0.006666666666666666 -0.19199999999999998 0.05333333333333333 -0.3466666666666667 -0.08933333333333333 -0.09066666666666667a2.1786666666666665 2.1786666666666665 0 0 0 -0.19466666666666665 0.5413333333333333 2.1333333333333333 2.1333333333333333 0 0 0 -0.13999999999999999 0.10666666666666666 3.6 3.6 0 0 1 -0.010666666666666666 -0.22666666666666668c-0.0026666666666666666 -0.19066666666666665 0.028 -0.3946666666666666 -0.08933333333333333 -0.034666666666666665a2.4426666666666668 2.4426666666666668 0 0 0 -0.09333333333333334 0.428c-0.5386666666666666 0.5133333333333333 -0.8666666666666667 1.2226666666666666 -0.8586666666666667 2.096v0.009333333333333332a4.56 4.56 0 0 0 0.018666666666666665 0.44c0.026666666666666665 0.3173333333333333 0.076 0.584 0.14266666666666666 0.8066666666666666 -0.12666666666666665 0.17333333333333334 -0.1373333333333333 0.9186666666666665 -0.013333333333333332 1.0906666666666665 0.09733333333333333 0.13866666666666666 0.6613333333333333 0.4666666666666666 0.7813333333333332 0.532a0.4893333333333333 0.4893333333333333 0 0 1 0.12533333333333332 0.124c0.15333333333333332 0.25066666666666665 0.15333333333333332 0.7559999999999999 0.036 1.016 -0.14266666666666666 0.3173333333333333 0.14266666666666666 0.37999999999999995 0.37999999999999995 0.42666666666666664 0.2373333333333333 0.047999999999999994 0.5533333333333332 -0.030666666666666665 0.6173333333333333 -0.15733333333333333 0.06266666666666666 -0.12666666666666665 -0.2053333333333333 -0.41333333333333333 -0.31599999999999995 -0.9973333333333333 -0.112 -0.5853333333333333 0.17333333333333334 -0.6319999999999999 0.17333333333333334 -0.6319999999999999s0.12666666666666665 0.032 0.31599999999999995 0.33199999999999996c0.14666666666666667 0.2333333333333333 0.30266666666666664 0.41733333333333333 0.448 0.5506666666666666a0.9693333333333333 0.9693333333333333 0 0 1 -0.268 0.2293333333333333c0.15999999999999998 0.006666666666666666 0.31999999999999995 -0.06799999999999999 0.4053333333333333 -0.11599999999999999a1.0266666666666666 1.0266666666666666 0 0 0 0.09333333333333334 0.06 1.353333333333333 1.353333333333333 0 0 1 -0.06666666666666667 0.06666666666666667 0.6746666666666666 0.6746666666666666 0 0 0 0.14533333333333331 -0.02933333333333333 0.3933333333333333 0.3933333333333333 0 0 0 0.112 0.02933333333333333c0.20666666666666667 0.016 0.7599999999999999 -0.49066666666666664 0.7599999999999999 -0.5853333333333333 0 -0.023999999999999997 -0.019999999999999997 -0.05333333333333333 -0.050666666666666665 -0.08399999999999999 -0.056 -0.06 -0.15999999999999998 -0.13333333333333333 -0.27599999999999997 -0.236a1.3733333333333333 1.3733333333333333 0 0 1 -0.14666666666666667 -0.15466666666666667 0.964 0.964 0 0 1 -0.18799999999999997 -0.49866666666666665v-0.013333333333333332l-0.004 -0.04133333333333333s0.009333333333333332 -0.009333333333333332 0.021333333333333333 -0.026666666666666665v0.005333333333333333l0.005333333333333333 -0.013333333333333332c0.06933333333333333 -0.10666666666666666 0.19999999999999998 -0.5053333333333333 -0.6266666666666666 -1.4373333333333334a4.06 4.06 0 0 0 -1.232 -0.9413333333333332c-0.056 -0.6293333333333333 0.19999999999999998 -1.2173333333333334 0.8346666666666667 -1.5066666666666664l-0.006666666666666666 0.006666666666666666 0.010666666666666666 -0.008c0.30266666666666664 -0.13599999999999998 0.6893333333333334 -0.20666666666666667 1.1693333333333333 -0.18133333333333335 0.9199999999999999 0.047999999999999994 1.6266666666666665 0.48 2.12 1.1266666666666665 0.6853333333333333 0.9493333333333333 0.984 2.373333333333333 0.7666666666666666 3.808 -0.09066666666666667 0.08666666666666667 -0.07333333333333333 0.09999999999999999 -0.017333333333333333 0.10266666666666666a6.154666666666666 6.154666666666666 0 0 1 -0.07333333333333333 0.364l-0.036 0.019999999999999997c-0.16399999999999998 0.09866666666666665 -0.09466666666666665 0.09733333333333333 0 0.12266666666666666l-0.008 0.026666666666666665a5.306666666666667 5.306666666666667 0 0 1 -0.088 0.2573333333333333 1.2746666666666666 1.2746666666666666 0 0 0 -0.11599999999999999 0.039999999999999994c-0.18 0.07066666666666666 -0.10666666666666666 0.07999999999999999 -0.016 0.12l0.05866666666666666 0.030666666666666665a7.493333333333333 7.493333333333333 0 0 1 -0.13466666666666666 0.31599999999999995 0.9946666666666666 0.9946666666666666 0 0 0 -0.10666666666666666 0.02266666666666667c-0.1893333333333333 0.047999999999999994 -0.11733333333333332 0.06666666666666667 -0.032 0.12a0.6933333333333334 0.6933333333333334 0 0 1 0.05333333333333333 0.036 9.044 9.044 0 0 1 -0.14266666666666666 0.2853333333333333 1.0133333333333332 1.0133333333333332 0 0 0 -0.204 0.03333333333333333c-0.18666666666666668 0.047999999999999994 -0.11599999999999999 0.06666666666666667 -0.030666666666666665 0.12 0.04533333333333334 0.026666666666666665 0.07999999999999999 0.05333333333333333 0.10666666666666666 0.07866666666666666a10.694666666666667 10.694666666666667 0 0 1 -0.12533333333333332 0.22l-0.030666666666666665 0.047999999999999994a0.7866666666666666 0.7866666666666666 0 0 0 -0.2746666666666666 0.032c-0.1893333333333333 0.047999999999999994 -0.11733333333333332 0.06666666666666667 -0.032 0.12a0.8933333333333333 0.8933333333333333 0 0 1 0.13866666666666666 0.10533333333333333 11.479999999999999 11.479999999999999 0 0 1 -0.16799999999999998 0.24 0.6853333333333333 0.6853333333333333 0 0 0 -0.30666666666666664 -0.006666666666666666c-0.19199999999999998 0.026666666666666665 -0.12266666666666666 0.05333333333333333 -0.044 0.11466666666666665 0.09066666666666667 0.07066666666666666 0.13333333333333333 0.132 0.15733333333333333 0.15733333333333333l-0.08266666666666667 0.112c-0.05866666666666666 -0.07733333333333334 -0.19999999999999998 -0.16533333333333333 -0.32799999999999996 -0.2573333333333333a1.1333333333333333 1.1333333333333333 0 0 0 -0.3866666666666666 -0.17333333333333334c-0.064 0 -0.26666666666666666 0.35733333333333334 -1.3559999999999999 0.26266666666666666 -1.0919999999999999 -0.09466666666666665 -1.16 -0.19999999999999998 -1.2559999999999998 -0.19999999999999998a1.3039999999999998 1.3039999999999998 0 0 0 -0.304 0.07866666666666666l-0.04533333333333334 -0.026666666666666665a14.706666666666665 14.706666666666665 0 0 1 -1.2959999999999998 -0.8986666666666667c-0.6186666666666667 -0.4933333333333333 -0.96 -0.8626666666666667 -0.96 -0.8626666666666667s0.18266666666666667 -0.16666666666666666 -0.06266666666666666 -0.3786666666666666a4.426666666666666 4.426666666666666 0 0 0 -0.45066666666666666 -0.36933333333333335 2.876 2.876 0 0 0 -0.32266666666666666 -0.22133333333333333 4.76 4.76 0 0 1 -0.11733333333333332 -0.16933333333333334 15.313333333333333 15.313333333333333 0 0 1 -0.484 -0.8373333333333333 13.94 13.94 0 0 1 -0.3333333333333333 -0.7026666666666667c-0.21333333333333332 -0.48 -0.36 -0.9093333333333333 -0.46133333333333326 -1.2853333333333332a7.493333333333333 7.493333333333333 0 0 1 -0.1973333333333333 -1.2306666666666666 3.009333333333333 3.009333333333333 0 0 1 0.005333333333333333 -0.32266666666666666 0.5479999999999999 0.5479999999999999 0 0 0 0.21066666666666667 -0.43066666666666664 0.5479999999999999 0.5479999999999999 0 0 0 -0.4773333333333333 -0.5426666666666666c-0.27199999999999996 -0.5693333333333332 -1.3093333333333332 -1.9693333333333334 -5.174666666666666 -4.906666666666666l-0.16933333333333334 -0.12933333333333333 0.006666666666666666 0.005333333333333333 -0.047999999999999994 -0.036C9.422666666666666 8.798666666666666 10.192 10.116 10.393333333333333 10.666666666666666a0.5479999999999999 0.5479999999999999 0 0 0 -0.036 0.044 24.92 24.92 0 0 0 -0.023999999999999997 -0.017333333333333333c0.023999999999999997 0 0.03333333333333333 -0.006666666666666666 0.03333333333333333 -0.006666666666666666s-0.896 -0.728 -2.3826666666666663 -1.64c-1.4906666666666668 -0.916 -2.3306666666666667 -1.132 -2.5066666666666664 -1.1693333333333333l-0.034666666666666665 -0.008s0.2746666666666666 0.2533333333333333 0.23199999999999998 0.37999999999999995c-0.013333333333333332 0.042666666666666665 -0.224 0.02933333333333333 -0.5613333333333332 0.03733333333333333a5.263999999999999 5.263999999999999 0 0 0 -0.9666666666666666 0.09333333333333334 5.466666666666666 5.466666666666666 0 0 0 -2.0893333333333333 0.84C0.3173333333333333 10.379999999999999 0 11.201333333333332 0 11.201333333333332s0.7333333333333334 -1.024 2.1066666666666665 -1.7399999999999998c-0.018666666666666665 0.44933333333333336 -0.06266666666666666 2.6266666666666665 0.5933333333333333 5.493333333333333 0.7066666666666667 3.093333333333333 2.04 5.982666666666667 2.152 6.22 0.005333333333333333 0.2373333333333333 0.021333333333333333 0.3626666666666667 0.021333333333333333 0.3626666666666667s0.1973333333333333 -2.3866666666666667 1.008 -4.862666666666666c0.2333333333333333 0.3773333333333333 1.0106666666666666 1.4893333333333332 2.7666666666666666 2.7946666666666666 2.1706666666666665 1.6133333333333333 3.16 2.048 3.1999999999999997 2.064 0.0013333333333333333 0.20933333333333332 0.006666666666666666 0.31999999999999995 0.006666666666666666 0.31999999999999995s0.006666666666666666 -0.13333333333333333 0.023999999999999997 -0.3506666666666667a6.253333333333334 6.253333333333334 0 0 1 0.736 -0.8933333333333333 4.773333333333333 4.773333333333333 0 0 1 0.72 -0.58c0.042666666666666665 0.14666666666666667 0.08399999999999999 0.27199999999999996 0.124 0.368 -0.026666666666666665 -0.12933333333333333 -0.047999999999999994 -0.2533333333333333 -0.06933333333333333 -0.37599999999999995 0.14266666666666666 0.013333333333333332 0.7173333333333334 0.088 1.6079999999999999 0.524 0.45733333333333337 0.224 0.8119999999999999 0.5266666666666666 1.064 0.7933333333333332a0.22266666666666668 0.22266666666666668 0 0 0 -0.018666666666666665 0.008s0.16399999999999998 0.14933333333333332 0.3586666666666667 0.5373333333333333a3.221333333333333 3.221333333333333 0 0 0 -0.9733333333333333 0.112 3.8839999999999995 3.8839999999999995 0 0 0 -0.13066666666666665 -0.2533333333333333 0.6453333333333333 0.6453333333333333 0 0 0 -0.052 -0.17866666666666667c-0.036 -0.08133333333333333 -0.12666666666666665 -0.13333333333333333 -0.21866666666666668 -0.18666666666666668a0.5293333333333333 0.5293333333333333 0 0 0 -0.13866666666666666 -0.09733333333333333 0.3 0.3 0 0 1 -0.07333333333333333 -0.09733333333333333c-0.112 -0.24533333333333332 -1.064 0.016 -1.2559999999999998 0.24 -0.2333333333333333 0.27199999999999996 -0.2786666666666666 0.6186666666666667 -0.18666666666666668 0.8106666666666666 0.028 0.06 0.09333333333333334 0.10933333333333334 0.184 0.14666666666666667 0.0026666666666666666 0.29333333333333333 0.18266666666666667 1 0.5386666666666666 1.5106666666666666a6.618666666666667 6.618666666666667 0 0 1 -0.144 -0.888c-0.011999999999999999 -0.21333333333333332 0 -0.36533333333333334 0.019999999999999997 -0.4666666666666666 0.06266666666666666 0.43733333333333335 0.23199999999999998 0.912 0.7693333333333332 1.4986666666666668 -0.33066666666666666 -0.72 -0.29333333333333333 -1.148 -0.26 -1.524l0.013333333333333332 -0.05866666666666666 0.006666666666666666 -0.0013333333333333333c0.047999999999999994 0.3506666666666667 0.1893333333333333 0.712 0.6426666666666666 1.2839999999999998a0.5493333333333332 0.5493333333333332 0 0 1 -0.018666666666666665 -0.03733333333333333l0.018666666666666665 0.028a2.1679999999999997 2.1679999999999997 0 0 1 -0.22266666666666668 -1.3733333333333333l0.010666666666666666 -0.0026666666666666666c0.06133333333333333 0.039999999999999994 0.12133333333333332 0.09333333333333334 0.17866666666666667 0.16799999999999998 0.17066666666666666 0.2293333333333333 0.25066666666666665 0.46533333333333327 0.2826666666666666 0.6266666666666666a0.704 0.704 0 0 0 0.08933333333333333 0.5106666666666666 24.439999999999998 24.439999999999998 0 0 1 -0.96 0.6679999999999999c-0.30666666666666664 0.19999999999999998 -0.6533333333333333 0.41733333333333333 -1.0093333333333332 0.6266666666666666 -0.18666666666666668 0.10666666666666666 -0.372 0.21066666666666667 -0.5519999999999999 0.30666666666666664l-0.18 -0.10266666666666666h0.0026666666666666666l-0.010666666666666666 -0.005333333333333333c-1.2933333333333332 -0.7453333333333334 -2.253333333333333 -1.2426666666666666 -3.357333333333333 -1.4426666666666668 -1.24 -0.22133333333333333 -2.381333333333333 0.3773333333333333 -2.6426666666666665 1.4426666666666668a1.712 1.712 0 0 0 0.736 1.8399999999999999l0.016 0.010666666666666666c0.017333333333333333 0.013333333333333332 0.034666666666666665 0.02266666666666667 0.05333333333333333 0.034666666666666665l0.07999999999999999 0.047999999999999994h0.0026666666666666666a2.8 2.8 0 0 0 0.9199999999999999 0.31599999999999995l0.03733333333333333 0.006666666666666666h0.008a4.666666666666666 4.666666666666666 0 0 0 0.5493333333333332 0.05866666666666666c1.2999999999999998 0.06266666666666666 2.8746666666666667 -0.5439999999999999 4.430666666666666 -1.3093333333333332 0.13333333333333333 0.072 0.2693333333333333 0.144 0.408 0.22133333333333333 3.396 1.8706666666666667 5.4639999999999995 2.1133333333333333 8.205333333333332 0.9706666666666666 -0.6693333333333333 0.2013333333333333 -1.6106666666666665 0.4746666666666666 -2.792 0.4586666666666666a0.06666666666666667 0.06666666666666667 0 0 0 -0.026666666666666665 -0.008v0.008a7.279999999999999 7.279999999999999 0 0 1 -0.8626666666666667 -0.06666666666666667l-0.039999999999999994 -0.005333333333333333v-0.004a0.356 0.356 0 0 0 -0.0013333333333333333 0.0026666666666666666 8.333333333333332 8.333333333333332 0 0 1 -2.0746666666666664 -0.5813333333333333 10.389333333333333 10.389333333333333 0 0 1 -0.9933333333333333 -0.48266666666666663 76.08666666666666 76.08666666666666 0 0 1 -1.3413333333333333 -0.7586666666666666c0.46399999999999997 -0.2373333333333333 0.9226666666666665 -0.484 1.3679999999999999 -0.7266666666666667 0.4733333333333333 -0.252 0.896 -0.48266666666666663 1.224 -0.6666666666666666l0.011999999999999999 -0.005333333333333333h0.009333333333333332s0.11066666666666666 -0.025333333333333333 0.21333333333333332 -0.057333333333333326c0.22666666666666668 -0.06933333333333333 0.5466666666666666 -0.19866666666666666 0.9266666666666665 -0.3773333333333333 0.03733333333333333 0.156 0.12666666666666665 0.2866666666666666 0.26 0.3373333333333333 0.3133333333333333 0.12133333333333332 0.5426666666666666 0.036 0.696 -0.13599999999999998l0.023999999999999997 -0.013333333333333332 0.06266666666666666 -0.049333333333333326c0.06666666666666667 -0.039999999999999994 0.14266666666666666 -0.08933333333333333 0.208 -0.12a1.5199999999999998 1.5199999999999998 0 0 1 0.07066666666666666 -0.02933333333333333c0.05333333333333333 -0.013333333333333332 0.104 -0.030666666666666665 0.15466666666666667 -0.049333333333333326l0.044 -0.013333333333333332c-0.1933333333333333 0.39599999999999996 -0.12133333333333332 0.7746666666666666 -0.12133333333333332 0.7746666666666666 0.057333333333333326 -0.4933333333333333 0.29333333333333333 -0.8106666666666666 0.5226666666666666 -0.9533333333333333 0.08533333333333333 -0.036 0.17333333333333334 -0.06666666666666667 0.26666666666666666 -0.08933333333333333 0.08533333333333333 0 0.15466666666666667 0.030666666666666665 0.19199999999999998 0.09333333333333334 0.09333333333333334 0.15999999999999998 0.28933333333333333 0.25866666666666666 0.4853333333333333 0.30133333333333334 0.032 0.19999999999999998 -0.06 0.5386666666666666 -0.5333333333333333 1.1546666666666665l0.12 -0.08266666666666667 0.005333333333333333 -0.004 0.09599999999999999 -0.07066666666666666c0.19066666666666665 -0.144 0.33599999999999997 -0.27999999999999997 0.44533333333333336 -0.4066666666666666a1.2933333333333332 1.2933333333333332 0 0 0 0.2533333333333333 -0.4066666666666666c0.017333333333333333 0.26666666666666666 -0.056 0.6759999999999999 -0.41333333333333333 1.3813333333333333 0 0 0.42266666666666663 -0.368 0.6853333333333333 -0.84 0.008 0.25466666666666665 -0.013333333333333332 0.5906666666666667 -0.08399999999999999 1.0466666666666666 0.45999999999999996 -0.8973333333333333 0.43333333333333335 -1.4466666666666665 0.31866666666666665 -1.768l-0.013333333333333332 -0.047999999999999994a0.5773333333333333 0.5773333333333333 0 0 0 -0.013333333333333332 -0.08666666666666667l0.056 -0.076c0.15733333333333333 -0.22133333333333333 -0.064 -0.4586666666666666 -0.2053333333333333 -0.5519999999999999 -0.07999999999999999 -0.05333333333333333 -0.26666666666666666 -0.2053333333333333 -0.6053333333333333 -0.20933333333333332 -0.3 -0.36 -0.6799999999999999 -0.19999999999999998 -1.2773333333333332 0.1933333333333333a1.7293333333333332 1.7293333333333332 0 0 1 -0.22133333333333333 0.12266666666666666 0.9666666666666666 0.9666666666666666 0 0 0 -0.07333333333333333 -0.15466666666666667c0.21333333333333332 -0.128 0.43466666666666665 -0.26666666666666666 0.6586666666666666 -0.4106666666666666 0.42266666666666663 -0.27599999999999997 0.7373333333333334 -0.5546666666666666 0.9706666666666666 -0.82 0.6799999999999999 -0.6893333333333334 0.9199999999999999 -1.3599999999999999 1.6133333333333333 -1.928h-0.017333333333333333l0.07999999999999999 -0.04133333333333333c1.1386666666666665 -0.6106666666666667 1.7413333333333334 -0.7293333333333334 1.784 -0.7373333333333334l-0.004 0.17066666666666666 0.023999999999999997 -0.16666666666666666a2.393333333333333 2.393333333333333 0 0 1 0.6413333333333333 0.4586666666666666 2.8266666666666667 2.8266666666666667 0 0 1 0.48266666666666663 0.6493333333333333l0.05866666666666666 0.39999999999999997s0 -0.15466666666666667 -0.013333333333333332 -0.44c0.204 -0.2013333333333333 1.3599999999999999 -1.3906666666666665 2.2986666666666666 -3.2880000000000003 0.9253333333333332 -1.8719999999999999 1.2586666666666666 -3.364 1.3559999999999999 -3.8986666666666663a24.250666666666664 24.250666666666664 0 0 1 0.8866666666666667 3.2880000000000003s-0.0026666666666666666 -0.17733333333333334 -0.039999999999999994 -0.49866666666666665c0.128 -0.448 0.6866666666666666 -2.496 0.8346666666666667 -5.007999999999999 0.13333333333333333 -2.2399999999999998 -0.08666666666666667 -3.706666666666666 -0.18666666666666668 -4.230666666666666 0.864 0.7146666666666667 1.3266666666666667 1.7413333333333334 1.3266666666666667 1.7413333333333334s-0.05333333333333333 -0.21733333333333332 -0.25066666666666665 -0.5826666666666667l0.026666666666666665 0.036s-0.31466666666666665 -0.6066666666666667 -0.8586666666666667 -1.2053333333333334a8.6 8.6 0 0 0 -0.20933333333333332 -0.2293333333333333c-0.576 -0.6133333333333333 -1.1386666666666665 -0.8226666666666667 -1.5599999999999998 -0.896a2.0933333333333333 2.0933333333333333 0 0 0 -0.4106666666666666 -0.039999999999999994h-0.025333333333333333c-0.16666666666666666 -0.004 -0.26666666666666666 0.0026666666666666666 -0.27599999999999997 -0.034666666666666665 -0.026666666666666665 -0.12666666666666665 0.14666666666666667 -0.37999999999999995 0.14666666666666667 -0.37999999999999995s-0.236 0.06133333333333333 -0.7386666666666667 0.44c-0.30666666666666664 0.22266666666666668 -0.6933333333333334 0.5466666666666666 -1.1373333333333333 1.0133333333333332a18.252 18.252 0 0 0 -1.1866666666666665 1.3253333333333333l-0.09999999999999999 0.12666666666666665a0.27066666666666667 0.27066666666666667 0 0 0 -0.030666666666666665 -0.02266666666666667c0.10133333333333333 -0.44 0.48266666666666663 -1.4893333333333332 2.384 -4.148zM15.893333333333333 18.786666666666665a0.46799999999999997 0.46799999999999997 0 0 1 0.016 0.008zm-0.3506666666666667 3.4746666666666663c0.11733333333333332 0.05866666666666666 0.2533333333333333 0.1413333333333333 0.40399999999999997 0.25866666666666666h-0.006666666666666666a0.6453333333333333 0.6453333333333333 0 0 0 -0.20666666666666667 0.09333333333333334 1.2746666666666666 1.2746666666666666 0 0 1 -0.16799999999999998 -0.29866666666666664zm-6.473333333333334 2.0933333333333333c0.176 0 0.368 0.017333333333333333 0.576 0.06266666666666666l0.026666666666666665 0.006666666666666666 0.02266666666666667 0.005333333333333333c0.14666666666666667 0.036 0.29733333333333334 0.08266666666666667 0.44933333333333336 0.13599999999999998l0.076 0.028c0.25466666666666665 0.09866666666666665 0.5266666666666666 0.208 0.8146666666666667 0.33066666666666666 0.42666666666666664 0.18666666666666668 0.8266666666666667 0.36933333333333335 1.1173333333333333 0.5l0.244 0.11733333333333332c-0.29333333333333333 0.1413333333333333 -0.5653333333333332 0.2613333333333333 -0.7693333333333332 0.348 -1.3519999999999999 0.5546666666666666 -2.44 0.7146666666666667 -3.1173333333333333 0.5213333333333333 -1.2586666666666666 -0.3586666666666667 -1.0133333333333332 -2.048 0.5599999999999999 -2.056z" fill="currentColor" stroke-width="1.3333">
</path>
</svg>
