<svg xmlns="http://www.w3.org/2000/svg" viewBox="0 0 32 32" height="32" width="32">
<path d="M21.0375 9.78125c0.08125 0.06875 0.16875 0.1375 0.24375 0.20625 0.58125 0.5125 1.4375 0.65625 2.0875 0.225l4.225 -2.81875c0.7125 -0.475 0.8875 -1.45 0.31875 -2.0875 -1.0375 -1.14375 -2.23125 -2.14375 -3.55625 -2.95625 -0.74375 -0.45625 -1.68125 -0.0875 -2.00625 0.725l-1.90625 4.7625c-0.28125 0.69375 0.0125 1.475 0.59375 1.95zM20.5 2.3c0.31875 -0.8 -0.1 -1.7125 -0.9375 -1.90625C18.41875 0.1375 17.225 0 16 0s-2.41875 0.1375 -3.5625 0.4c-0.84375 0.1875 -1.2625 1.1 -0.9375 1.9l1.89375 4.7375c0.28125 0.70625 1.05 1.075 1.8125 1 0.2625 -0.025 0.525 -0.0375 0.79375 -0.0375s0.5375 0.0125 0.79375 0.0375c0.75625 0.075 1.525 -0.29375 1.8125 -1L20.5 2.3zM4.09375 5.3125c-0.56875 0.6375 -0.39375 1.6125 0.31875 2.0875l4.225 2.81875c0.64375 0.43125 1.50625 0.2875 2.0875 -0.225 0.08125 -0.06875 0.1625 -0.14375 0.25 -0.20625 0.58125 -0.46875 0.86875 -1.25625 0.59375 -1.95l-1.91875 -4.7625c-0.325 -0.80625 -1.26875 -1.175 -2.00625 -0.725 -1.325 0.8125 -2.51875 1.8125 -3.55 2.9625zm19.625 8.56875c0.05625 0.20625 0.10625 0.4125 0.14375 0.625 0.15625 0.8125 0.8125 1.49375 1.6375 1.49375h5c0.83125 0 1.50625 -0.675 1.43125 -1.5 -0.15625 -1.7 -0.58125 -3.325 -1.23125 -4.83125 -0.34375 -0.80625 -1.3375 -1.0375 -2.06875 -0.55625l-4.2875 2.85625c-0.6125 0.40625 -0.825 1.2 -0.625 1.90625zM3.36875 9.1125c-0.725 -0.4875 -1.725 -0.25 -2.06875 0.55625C0.65 11.175 0.225 12.8 0.06875 14.5c-0.075 0.825 0.6 1.5 1.43125 1.5h5c0.83125 0 1.4875 -0.675 1.6375 -1.49375 0.0375 -0.2125 0.0875 -0.41875 0.14375 -0.625 0.19375 -0.7125 -0.0125 -1.5 -0.625 -1.90625l-4.2875 -2.8625zM6.5 18H1.5c-0.83125 0 -1.5 0.66875 -1.5 1.5v3c0 0.83125 0.66875 1.5 1.5 1.5h5c0.83125 0 1.5 -0.66875 1.5 -1.5v-3c0 -0.83125 -0.66875 -1.5 -1.5 -1.5zm19 0c-0.83125 0 -1.5 0.66875 -1.5 1.5v3c0 0.83125 0.66875 1.5 1.5 1.5h5c0.83125 0 1.5 -0.66875 1.5 -1.5v-3c0 -0.83125 -0.66875 -1.5 -1.5 -1.5h-5zM1.5 26c-0.83125 0 -1.5 0.66875 -1.5 1.5v3c0 0.83125 0.66875 1.5 1.5 1.5h5c0.83125 0 1.5 -0.66875 1.5 -1.5v-3c0 -0.83125 -0.66875 -1.5 -1.5 -1.5H1.5zm24 0c-0.83125 0 -1.5 0.66875 -1.5 1.5v3c0 0.83125 0.66875 1.5 1.5 1.5h5c0.83125 0 1.5 -0.66875 1.5 -1.5v-3c0 -0.83125 -0.66875 -1.5 -1.5 -1.5h-5zM17 12c0 -0.55 -0.45 -1 -1 -1s-1 0.45 -1 1v17c0 0.55 0.45 1 1 1s1 -0.45 1 -1V12zm-4 2c0 -0.55 -0.45 -1 -1 -1s-1 0.45 -1 1v15c0 0.55 0.45 1 1 1s1 -0.45 1 -1V14zm8 0c0 -0.55 -0.45 -1 -1 -1s-1 0.45 -1 1v15c0 0.55 0.45 1 1 1s1 -0.45 1 -1V14z" fill="currentColor" stroke-width="0.0625">
</path>
</svg>