<svg width="480" height="480" xmlns="http://www.w3.org/2000/svg" xmlns:xlink="http://www.w3.org/1999/xlink" overflow="hidden" fill="currentColor" stroke="currentColor" stroke-width="1" stroke-linecap="round" stroke-linejoin="round" viewBox="0 0 480 480" >
	<path d="M91.493 282.995 92.2553 285.957C111.842 348.868 170.581 394.545 240 394.545 309.418 394.545 368.157 348.868 387.744 285.957L388.5 283.018 394.976 284.12 403.886 285.24 402.518 290.553C380.973 359.755 316.36 410 240 410 163.639 410 99.0262 359.755 77.4808 290.553L76.1091 285.223 84.8809 284.12ZM73.0954 206.998 81.4273 209.175 88.1754 210.607 87.6452 214.077 78.6592 213.917 72 214.167ZM406.898 206.962 408 214.173 401.198 213.917 392.354 214.075 391.819 210.577 398.43 209.175ZM240 70C292.864 70 340.099 94.0822 371.31 131.864L373.935 135.37 360.953 141.452 359.668 142.089 359.373 141.695C330.999 107.347 288.059 85.4546 240 85.4546 193.276 85.4546 151.39 106.148 123.024 138.862L120.542 142.263 118.904 141.452 106.017 135.415 111.327 128.748C142.529 92.7629 188.603 70 240 70Z" fill-rule="evenodd"/>
	<path d="M218.173 97.4594C230.163 92.6466 108.434 21.0369 73.3721 6.45242 38.3104-8.13208 17.0608 6.01501 7.80208 9.95273-1.45666 13.8904-0.84942 37.9547 1.42731 35.3296 41.6495 74.4159 206.182 102.272 218.173 97.4594Z" fill-rule="evenodd" transform="matrix(-1 0 0 1 477 126)"/>
	<path d="M259.071 231.899C255.998 240.396 353.413 268.154 383.555 275.073 413.698 281.992 430.173 278.698 439.926 273.412 449.679 268.126 450.84 258.013 442.075 243.358 422.65 224.199 433.049 228.999 401.993 224.087 370.938 219.174 262.144 223.401 259.071 231.899Z" fill-rule="evenodd"/>
	<path d="M221.173 223.459C233.163 218.647 111.434 147.037 76.3721 132.452 41.3104 117.868 20.0608 132.015 10.8021 135.953 1.54334 139.89 2.15058 163.955 4.42731 161.33 44.6495 200.416 209.182 228.272 221.173 223.459Z" fill-rule="evenodd"/>
	<path d="M188.929 47.1013C192.002 38.6036 94.587 10.8461 64.4445 3.92719 34.3021-2.99176 17.8274 0.30188 8.07424 5.58775-1.67894 10.8736-2.83974 20.9873 5.92517 35.6423 25.3504 54.8013 14.9508 50.0008 46.0067 54.9132 77.0625 59.8256 185.856 55.5989 188.929 47.1013Z" fill-rule="evenodd" transform="matrix(1 0 0 -1 32 279)"/>
	<path d="M16.3291 0 15.9999 7.6586 15.6709 0 4.24545 1.59433C-9.32658 65.6661 13.8012 170.49 15.8467 169.998L15.9999 169.096 16.1532 169.998C18.1987 170.49 41.3265 65.6661 27.7545 1.59433Z" fill-rule="evenodd" transform="matrix(-1 0 0 1 256 193)"/>
	<path d="M221 180C221 169.507 229.507 161 240 161 250.493 161 259 169.507 259 180 259 190.493 250.493 199 240 199 229.507 199 221 190.493 221 180Z" fill-rule="evenodd"/>
</svg>