<svg xmlns="http://www.w3.org/2000/svg" viewBox="0 0 32 32" height="32" width="32">
<path d="M10.512 6.5920000000000005c0 -0.603525 -0.6533350000000001 -0.9807250000000001 -1.176 -0.678965 -0.24257 0.14005 -0.392 0.39887000000000006 -0.392 0.678965 0 0.603525 0.6533350000000001 0.9807250000000001 1.176 0.678965 0.24257 -0.14005 0.392 -0.39887000000000006 0.392 -0.678965Zm2.352 0c0 0.7938000000000001 -0.294 1.5239000000000003 -0.784 2.0727l0.7644000000000001 1.5288000000000002c0.9163000000000001 -0.294 1.9550999999999998 -0.4655 3.1556 -0.4655s2.2442 0.1715 3.1556 0.4655l0.7644000000000001 -1.5288000000000002c-0.49000000000000005 -0.5488000000000001 -0.784 -1.2789000000000001 -0.784 -2.0727 0 -1.7297000000000002 1.4063 -3.136 3.136 -3.136s3.136 1.4063 3.136 3.136 -1.4063 3.136 -3.136 3.136c-0.0833 0 -0.1666 -0.004900000000000001 -0.2499 -0.009800000000000001l-0.7399 1.4798c1.0339 0.6664 1.8473 1.4798 2.5186 2.2736 0.34790000000000004 0.40670000000000006 0.6615000000000001 0.8134000000000001 0.9457000000000001 1.176l0.06860000000000001 0.0882c0.30870000000000003 0.39690000000000003 0.5684 0.7252000000000001 0.8183 0.9996 0.5243000000000001 0.5733 0.7889 0.6566000000000001 0.9506000000000001 0.6566000000000001 0.12250000000000001 0 0.21070000000000003 -0.0294 0.34790000000000004 -0.1617 0.18130000000000002 -0.1715 0.34790000000000004 -0.4312 0.6125 -0.8526l0.0294 -0.0441c0.22540000000000002 -0.36260000000000003 0.539 -0.8624 0.9506000000000001 -1.2593 0.47530000000000006 -0.45570000000000005 1.1221 -0.8183 1.9796 -0.8183 0.6517000000000001 0 1.176 0.5243000000000001 1.176 1.176s-0.5243000000000001 1.176 -1.176 1.176c-0.12250000000000001 0 -0.21070000000000003 0.0294 -0.34790000000000004 0.1617 -0.18130000000000002 0.1715 -0.34790000000000004 0.4312 -0.6125 0.8526l-0.0294 0.0441c-0.22540000000000002 0.36260000000000003 -0.539 0.8624 -0.9506000000000001 1.2593 -0.47530000000000006 0.45570000000000005 -1.1221 0.8183 -1.9796 0.8183 -0.9065 0 -1.6120999999999999 -0.41650000000000004 -2.1707 -0.9114000000000001 -0.1519 0.196 -0.3234 0.40670000000000006 -0.5145 0.6223000000000001 0.06860000000000001 0.21070000000000003 0.13720000000000002 0.41650000000000004 0.196 0.6125 0.0441 0.147 0.0882 0.2842 0.1274 0.42140000000000005 0.147 0.48019999999999996 0.2695 0.8917999999999999 0.42140000000000005 1.2691000000000001 0.19110000000000002 0.48019999999999996 0.36260000000000003 0.7546 0.5292 0.9065 0.1274 0.1176 0.2891 0.21070000000000003 0.6272000000000001 0.21070000000000003 0.4263 0 0.8281000000000001 -0.20579999999999998 1.6513000000000002 -0.6468 0.735 -0.392 1.7492999999999999 -0.9212 3.0527 -0.9212 0.6517000000000001 0 1.176 0.5243000000000001 1.176 1.176s-0.5243000000000001 1.176 -1.176 1.176c-0.6566000000000001 0 -1.2103000000000002 0.2548 -1.9453 0.6468 -0.049 0.0294 -0.10289999999999999 0.0539 -0.15680000000000002 0.0833 -0.6468 0.3528 -1.5533000000000001 0.8428000000000001 -2.6019 0.8428000000000001 -0.9016000000000001 0 -1.6463999999999999 -0.2989 -2.2295000000000003 -0.8428000000000001 -0.5439 -0.5047 -0.8771000000000001 -1.1613 -1.1123 -1.7640000000000002 -0.1764 -0.44100000000000006 -0.32830000000000004 -0.9359000000000001 -0.4655 -1.3965 -0.8036 0.6027 -1.7689000000000001 1.1564 -2.8861000000000003 1.5337 0.1764 0.5292 0.41159999999999997 1.1515000000000002 0.7056 1.7738 0.3675 0.7791000000000001 0.7938000000000001 1.4896000000000003 1.2642 1.9845 0.4606 0.4998 0.8624 0.6713 1.1956 0.6713 0.6517000000000001 0 1.176 0.5243000000000001 1.176 1.176s-0.5243000000000001 1.176 -1.176 1.176c-1.2348000000000001 0 -2.205 -0.6615000000000001 -2.9155 -1.4112 -0.7105000000000001 -0.7546 -1.2593 -1.7101 -1.6758 -2.597 -0.392 -0.8330000000000001 -0.6909000000000001 -1.6562000000000001 -0.8967 -2.2981000000000003 -0.2548 0.019600000000000003 -0.5194 0.0294 -0.784 0.0294s-0.5292 -0.009800000000000001 -0.784 -0.0294c-0.20579999999999998 0.637 -0.5047 1.4651 -0.8967 2.2981000000000003 -0.41650000000000004 0.8869 -0.9702000000000001 1.8424 -1.6758 2.597 -0.7105000000000001 0.7497 -1.6806999999999999 1.4112 -2.9155 1.4112 -0.6517000000000001 0 -1.176 -0.5243000000000001 -1.176 -1.176s0.5243000000000001 -1.176 1.176 -1.176c0.3332 0 0.735 -0.1715 1.2005000000000001 -0.6713 0.4655 -0.4949 0.8967 -1.2054 1.2642 -1.9845 0.2891 -0.6174000000000001 0.5243000000000001 -1.2446000000000002 0.7056 -1.7738 -1.1172000000000002 -0.3773 -2.0825 -0.931 -2.8861000000000003 -1.5337 -0.1421 0.4606 -0.294 0.9555 -0.4655 1.3965 -0.2352 0.5978 -0.5684 1.2544000000000002 -1.1123 1.7640000000000002 -0.588 0.5439 -1.3328 0.8428000000000001 -2.2344000000000004 0.8428000000000001 -1.0486000000000002 0 -1.9550999999999998 -0.49000000000000005 -2.6019 -0.8379 -0.0539 -0.0294 -0.1078 -0.0588 -0.15680000000000002 -0.0833 -0.735 -0.392 -1.2887000000000002 -0.6468 -1.9453 -0.6468 -0.6517000000000001 0 -1.176 -0.5243000000000001 -1.176 -1.176s0.5243000000000001 -1.176 1.176 -1.176c1.3034000000000001 0 2.3177 0.5292 3.0527 0.9212 0.8231999999999999 0.44100000000000006 1.225 0.6468 1.6513000000000002 0.6468 0.3332 0 0.4998 -0.09310000000000002 0.6272000000000001 -0.21070000000000003 0.1666 -0.15680000000000002 0.343 -0.4312 0.5292 -0.9065 0.147 -0.3773 0.27440000000000003 -0.7889 0.42140000000000005 -1.2691000000000001 0.039200000000000006 -0.1323 0.0833 -0.27440000000000003 0.1274 -0.42140000000000005 0.0588 -0.196 0.1274 -0.4018 0.196 -0.6125 -0.19110000000000002 -0.22050000000000003 -0.36260000000000003 -0.4312 -0.5145 -0.6223000000000001 -0.5586000000000001 0.49000000000000005 -1.2642 0.9065 -2.1707 0.9065 -0.8574999999999999 0 -1.5043 -0.36260000000000003 -1.9796 -0.8183 -0.41159999999999997 -0.39690000000000003 -0.7252000000000001 -0.8967 -0.9506000000000001 -1.2593l-0.0294 -0.0441c-0.2646 -0.42140000000000005 -0.4312 -0.6811 -0.6125 -0.8526 -0.13720000000000002 -0.1323 -0.22540000000000002 -0.1617 -0.34790000000000004 -0.1617 -0.6517000000000001 0 -1.176 -0.5243000000000001 -1.176 -1.176s0.5243000000000001 -1.176 1.176 -1.176c0.8574999999999999 0 1.5043 0.36260000000000003 1.9796 0.8183 0.41159999999999997 0.39690000000000003 0.7252000000000001 0.8967 0.9506000000000001 1.2593l0.0294 0.0441c0.2646 0.42140000000000005 0.4312 0.6811 0.6125 0.8526 0.13720000000000002 0.1323 0.22540000000000002 0.1617 0.34790000000000004 0.1617 0.1617 0 0.4263 -0.0833 0.9506000000000001 -0.6566000000000001 0.2499 -0.27440000000000003 0.5096 -0.6027 0.8183 -0.9996l0.06860000000000001 -0.0882c0.2842 -0.36260000000000003 0.5978 -0.7693 0.9457000000000001 -1.176 0.6762 -0.7938000000000001 1.4847000000000001 -1.6072 2.5186 -2.2736l-0.7399 -1.4798c-0.0833 0.004900000000000001 -0.1666 0.009800000000000001 -0.2499 0.009800000000000001 -1.7297000000000002 0 -3.136 -1.4063 -3.136 -3.136s1.4063 -3.136 3.136 -3.136 3.136 1.4063 3.136 3.136Zm10.192 0c0 -0.603525 -0.6533350000000001 -0.9807250000000001 -1.176 -0.678965 -0.24257 0.14005 -0.392 0.39887000000000006 -0.392 0.678965 0 0.603525 0.6533350000000001 0.9807250000000001 1.176 0.678965 0.24257 -0.14005 0.392 -0.39887000000000006 0.392 -0.678965Z" fill="currentColor" stroke-width="0.05">
</path>
</svg>
