<svg xmlns="http://www.w3.org/2000/svg" fill="none" viewBox="0 0 32 32" height="32" width="32">
<path fill="currentColor" fill-rule="evenodd" d="M8.25432 10.119213333333333C6.3211200000000005 11.408013333333333 5.333333333333333 13.04204 5.333333333333333 14.666666666666666c0 1.5899999999999999 0.9511733333333333 3.1955999999999998 2.800933333333333 4.466533333333333 0.14710666666666666 -0.05826666666666667 0.29788 -0.11133333333333334 0.45182666666666665 -0.15906666666666666 0.5293333333333333 -0.16413333333333333 1.0968666666666667 -0.2652 1.6831466666666666 -0.29679999999999995C10.400839999999999 18.670266666666667 10.533386666666665 18.666666666666664 10.666666666666666 18.666666666666664c1.3167733333333334 0 2.568413333333333 0.34959999999999997 3.5352 0.9833333333333334l0.032799999999999996 0.021599999999999998c0.16679999999999998 0.1112 0.3288 0.23413333333333333 0.48266666666666663 0.36826666666666663 0.4073333333333333 0.35506666666666664 0.7574666666666667 0.7884 0.9885333333333333 1.2909333333333333 0.09773333333333334 0.0017333333333333333 0.19573333333333334 0.002533333333333333 0.2941333333333333 0.002533333333333333 3.0871999999999997 0 5.821866666666666 -0.8366666666666666 7.745733333333334 -2.1191999999999998C25.678933333333333 17.925333333333334 26.666666666666664 16.291333333333334 26.666666666666664 14.666666666666666c0 -1.6246266666666664 -0.9877333333333334 -3.258653333333333 -2.920933333333333 -4.547453333333333C21.821866666666665 8.836626666666666 19.0872 8 16 8c-3.0871866666666663 0 -5.8218 0.8366266666666666 -7.74568 2.119213333333333ZM2.6666666666666665 14.666666666666666c0 2.4526666666666666 1.3051466666666665 4.570933333333333 3.2580533333333332 6.142666666666667C5.563373333333333 21.33533333333333 5.333333333333333 21.959733333333332 5.333333333333333 22.666666666666664c0 1.3209333333333333 0.8030666666666666 2.3534666666666664 1.7653066666666666 2.9950666666666668C8.0702 26.30933333333333 9.335573333333333 26.666666666666664 10.666666666666666 26.666666666666664c1.3310933333333332 0 2.5964666666666663 -0.35733333333333334 3.568 -1.0049333333333332 0.4414666666666667 -0.2944 0.8494666666666666 -0.6710666666666666 1.1617333333333333 -1.1199999999999999 0.2512 0.20453333333333334 0.5114666666666666 0.4550666666666666 0.7578666666666667 0.7426666666666667 0.7133333333333334 0.8322666666666666 1.1790666666666665 1.8127999999999997 1.1790666666666665 2.7156000000000002h2.6666666666666665c0 -1.6110666666666664 -0.7238666666666667 -3.0646666666666667 -1.5757333333333332 -4.151866666666667 2.5926666666666662 -0.3289333333333333 4.9454666666666665 -1.1784 6.800666666666666 -2.4151999999999996C27.6348 19.826266666666665 29.333333333333332 17.460266666666666 29.333333333333332 14.666666666666666c0 -2.7936533333333333 -1.6985333333333332 -5.159626666666666 -4.1084 -6.766253333333333C22.8056 6.28756 19.540266666666668 5.333333333333333 16 5.333333333333333c-3.5402266666666664 0 -6.8056133333333335 0.9542266666666667 -9.224879999999999 2.56708C4.365173333333333 9.50704 2.6666666666666665 11.873013333333333 2.6666666666666665 14.666666666666666Zm5.911173333333332 7.223733333333333c0.21408 -0.14266666666666666 0.4804 -0.2697333333333333 0.7885199999999999 -0.36626666666666663 0.3393866666666666 -0.10626666666666665 0.72844 -0.17533333333333334 1.1525066666666666 -0.18853333333333333C10.56768 21.33413333333333 10.616946666666667 21.333333333333332 10.666666666666666 21.333333333333332c0.86788 0 1.59636 0.23426666666666665 2.0733066666666664 0.5468l0.015519999999999999 0.010266666666666667c0.08408 0.05613333333333333 0.1563733333333333 0.11146666666666666 0.21844 0.16546666666666665 0.16822666666666666 0.14666666666666667 0.26136 0.28359999999999996 0.3104 0.39693333333333336 0.037226666666666665 0.08639999999999999 0.048999999999999995 0.1596 0.048999999999999995 0.21386666666666665 0 0.15186666666666665 -0.09236 0.4525333333333333 -0.5778399999999999 0.7762666666666667C12.279333333333334 23.760266666666666 11.54472 24 10.666666666666666 24c-0.8780533333333334 0 -1.6126666666666667 -0.2397333333333333 -2.0888266666666664 -0.5570666666666666C8.09236 23.1192 8 22.818533333333335 8 22.666666666666664c0 -0.15186666666666665 0.09236 -0.4525333333333333 0.5778399999999999 -0.7762666666666667Z" clip-rule="evenodd" stroke-width="1.3333"/>
</svg>
