<svg xmlns="http://www.w3.org/2000/svg" fill="none" viewBox="0 0 32 32" height="32" width="32">
<path id="Union" fill="currentColor" fill-rule="evenodd" d="M23.9184 0.05970971428571428c-0.6934857142857143 0 -1.31856 0.41767314285714285 -1.5839085714285714 1.0582559999999999 -0.2653257142857143 0.6405851428571429 -0.11865142857142856 1.37792 0.37161142857142854 1.868205714285714l1.971382857142857 1.9714971428571428 -3.778537142857143 3.778628571428571C17.009942857142857 5.426171428571428 11.969325714285713 3.4285714285714284 6.462148571428571 3.4285714285714284c-1.6996799999999999 0 -3.356937142857143 0.1905828571428571 -4.9507771428571425 0.5522514285714285 -0.9233028571428571 0.20950857142857143 -1.5019469028571428 1.12784 -1.292437257142857 2.0511314285714284 0.20950697142857141 0.9233142857142856 1.1278315428571428 1.501942857142857 2.0511344 1.2924342857142859 0.6238971428571428 -0.14155428571428572 1.2598742857142857 -0.25225142857142857 1.9062742857142858 -0.33028571428571424v17.271497142857143H1.890950857142857c-0.6933622857142857 0 -1.3184548571428572 0.41759999999999997 -1.5837919999999999 1.0582857142857143l-0.0018902857142857144 0.004571428571428571c-0.04402057142857142 0.10674285714285714 -0.07755725714285713 0.21919999999999998 -0.09932502857142857 0.33554285714285714 -0.023518171428571426 0.12548571428571428 -0.032762742857142854 0.2521142857142857 -0.02819382857142857 0.3778285714285714 0.016291885714285713 0.4676571428571428 0.2198662857142857 0.8875428571428571 0.5380285714285714 1.1871999999999998l4.169090285714286 4.169142857142857c0.3127771428571428 0.3337142857142857 0.7575085714285713 0.5421714285714285 1.2509485714285715 0.5421714285714285 0.9467657142857143 0 1.7142857142857142 -0.7675428571428571 1.7142857142857142 -1.7142857142857142V28h17.332297142857144c-0.07817142857142857 0.6464 -0.1888 1.2825142857142857 -0.33028571428571424 1.9062857142857141 -0.2096 0.9234285714285715 0.3691428571428571 1.8416 1.292342857142857 2.0511999999999997 0.9234285714285715 0.2096 1.8416 -0.3691428571428571 2.0511999999999997 -1.292342857142857 0.3616 -1.5938285714285714 0.5522285714285714 -3.2512 0.5522285714285714 -4.950857142857142 0 -5.566742857142857 -2.041142857142857 -10.656777142857143 -5.4155428571428565 -14.56256l3.7695999999999996 -3.7696914285714285 1.9714285714285715 1.9714971428571428c0.49028571428571427 0.49028571428571427 1.2276571428571428 0.6369599999999999 1.868342857142857 0.37161142857142854 0.6404571428571428 -0.26534857142857143 1.0582857142857143 -0.8904228571428572 1.0582857142857143 -1.5837942857142857V1.7739954285714286c0 -0.24354514285714285 -0.050742857142857145 -0.4752274285714286 -0.1424 -0.6850354285714285 -0.07382857142857142 -0.16966171428571428 -0.17645714285714287 -0.3298102857142857 -0.30788571428571426 -0.4730331428571428 -0.03291428571428571 -0.03592685714285714 -0.06742857142857142 -0.07044571428571428 -0.1033142857142857 -0.10345599999999999 -0.14857142857142858 -0.136976 -0.31565714285714286 -0.24287314285714284 -0.49257142857142855 -0.3176884571428571C30.74834285714286 0.10781051428571428 30.522742857142855 0.05970971428571428 30.285714285714285 0.05970971428571428h-6.367314285714285ZM18.46525714285714 11.16998857142857C15.478811428571428 8.702537142857143 11.71958857142857 7.137165714285715 7.604914285714285 6.8911999999999995v15.139154285714286l10.860342857142857 -10.860365714285713Zm2.434971428571428 2.41376C23.429028571428567 16.590331428571428 25.03565714285714 20.39805714285714 25.28525714285714 24.57142857142857H9.912548571428571l10.98768 -10.98768Z" clip-rule="evenodd" stroke-width="2.2857">
</path>
</svg>
