<svg xmlns="http://www.w3.org/2000/svg" viewBox="0 0 32 32" height="32" width="32">
	<path d="M8.146666666666667 4H6A6.013333333333333 6.013333333333333 0 0 0 0 10V12a0.6666666666666666 0.6666666666666666 0 0 0 0.6666666666666666 0.6666666666666666h6.333333333333333a0.6666666666666666 0.6666666666666666 0 0 0 0.6666666666666666 -0.6666666666666666V8a8.786666666666665 8.786666666666665 0 0 1 0.7733333333333332 -3.52 0.3333333333333333 0.3333333333333333 0 0 0 0 -0.31999999999999995 0.3333333333333333 0.3333333333333333 0 0 0 -0.29333333333333333 -0.15999999999999998Z"/>
	<path d="M20.813333333333333 4.133333333333333a0.6266666666666666 0.6266666666666666 0 0 0 -0.39999999999999997 -0.13333333333333333H11.599999999999998a0.6399999999999999 0.6399999999999999 0 0 0 -0.3866666666666666 0.12C9.706666666666667 5.199999999999999 9.666666666666666 7.853333333333333 9.666666666666666 8v4a0.6666666666666666 0.6666666666666666 0 0 0 0.6666666666666666 0.6666666666666666h11.333333333333332a0.6666666666666666 0.6666666666666666 0 0 0 0.6666666666666666 -0.6666666666666666V8c0 -0.14666666666666667 -0.039999999999999994 -2.786666666666666 -1.5199999999999998 -3.8666666666666663Z"/>
	<path d="M26 4h-2.1466666666666665a0.3333333333333333 0.3333333333333333 0 0 0 -0.27999999999999997 0.15999999999999998 0.3333333333333333 0.3333333333333333 0 0 0 0 0.31999999999999995A8.786666666666665 8.786666666666665 0 0 1 24.333333333333332 8v4a0.6666666666666666 0.6666666666666666 0 0 0 0.6666666666666666 0.6666666666666666h6.333333333333333A0.6666666666666666 0.6666666666666666 0 0 0 32 12V10A6.013333333333333 6.013333333333333 0 0 0 26 4Z"/>
	<path d="M7 14.666666666666666H0.6666666666666666a0.6666666666666666 0.6666666666666666 0 0 0 -0.6666666666666666 0.6666666666666666v9.333333333333332A3.333333333333333 3.333333333333333 0 0 0 3.333333333333333 28h3.6666666666666665a0.6666666666666666 0.6666666666666666 0 0 0 0.6666666666666666 -0.6666666666666666v-12a0.6666666666666666 0.6666666666666666 0 0 0 -0.6666666666666666 -0.6666666666666666Z"/>
	<path d="M21.666666666666664 14.666666666666666H20a0.6666666666666666 0.6666666666666666 0 0 0 -0.6666666666666666 0.6666666666666666v1.3333333333333333a3.333333333333333 3.333333333333333 0 0 1 -6.666666666666666 0v-1.3333333333333333A0.6666666666666666 0.6666666666666666 0 0 0 12 14.666666666666666H10.333333333333332a0.6666666666666666 0.6666666666666666 0 0 0 -0.6666666666666666 0.6666666666666666v12a0.6666666666666666 0.6666666666666666 0 0 0 0.6666666666666666 0.6666666666666666h11.333333333333332a0.6666666666666666 0.6666666666666666 0 0 0 0.6666666666666666 -0.6666666666666666v-12a0.6666666666666666 0.6666666666666666 0 0 0 -0.6666666666666666 -0.6666666666666666Z"/>
	<path d="M31.333333333333332 14.666666666666666h-6.333333333333333a0.6666666666666666 0.6666666666666666 0 0 0 -0.6666666666666666 0.6666666666666666v12a0.6666666666666666 0.6666666666666666 0 0 0 0.6666666666666666 0.6666666666666666h3.6666666666666665a3.333333333333333 3.333333333333333 0 0 0 3.333333333333333 -3.333333333333333v-9.333333333333332a0.6666666666666666 0.6666666666666666 0 0 0 -0.6666666666666666 -0.6666666666666666Z"/>
	<path d="M14.666666666666666 16.666666666666664a1.3333333333333333 1.3333333333333333 0 1 0 2.6666666666666665 0 1.3333333333333333 1.3333333333333333 0 1 0 -2.6666666666666665 0"/>
</svg>
