<svg xmlns="http://www.w3.org/2000/svg" viewBox="0 0 32 32" height="32" width="32">
	<path d="m4 26 6.5375 -14.70625c0.95625 -2.15 2.51875 -3.96875 4.5 -5.23125L24.21875 0.1875c0.1875 -0.11875 0.40625 -0.18125 0.625 -0.18125C25.48125 0 26 0.51875 26 1.1625v0.1c0 0.1625 -0.03125 0.31875 -0.0875 0.46875l-3.7375 9.325c-0.11875 0.29375 -0.175 0.60625 -0.175 0.91875 0 0.34375 0.075 0.6875 0.2125 1.00625L28 26H15.05625l0.7375 -2.2125 2.525 -0.84375c0.40625 -0.1375 0.68125 -0.51875 0.68125 -0.95s-0.275 -0.8125 -0.68125 -0.95l-2.525 -0.84375 -0.84375 -2.525c-0.1375 -0.4 -0.51875 -0.675 -0.95 -0.675s-0.8125 0.275 -0.95 0.68125l-0.84375 2.525 -2.525 0.84375c-0.40625 0.1375 -0.68125 0.51875 -0.68125 0.95s0.275 0.8125 0.68125 0.95l2.525 0.84375 0.7375 2.20625H4zm13.475 -17.15625c-0.06875 -0.20625 -0.25625 -0.34375 -0.475 -0.34375s-0.40625 0.1375 -0.475 0.34375l-0.41875 1.2625 -1.2625 0.41875c-0.20625 0.06875 -0.34375 0.25625 -0.34375 0.475s0.1375 0.40625 0.34375 0.475l1.2625 0.41875 0.41875 1.2625c0.06875 0.20625 0.25625 0.34375 0.475 0.34375s0.40625 -0.1375 0.475 -0.34375l0.41875 -1.2625 1.2625 -0.41875c0.20625 -0.06875 0.34375 -0.25625 0.34375 -0.475s-0.1375 -0.40625 -0.34375 -0.475l-1.2625 -0.41875 -0.41875 -1.2625zM2 28h28c1.10625 0 2 0.89375 2 2s-0.89375 2 -2 2H2c-1.10625 0 -2 -0.89375 -2 -2s0.89375 -2 2 -2z" stroke-width="0.0625"/>
</svg>
